<svg id="Live" xmlns="http://www.w3.org/2000/svg" viewBox="0 0 369.18 141.88"><defs><style>.cls-1{fill:#2a5673;}.cls-2{fill:#b8232f;fill-rule:evenodd;}</style></defs><title>2019-08-19_Full_logo_f</title><path class="cls-1" d="M225.81,71.78h-7.49l-4.69,10.85h-1.78l-4.7-10.85h-7.49L195,82.63h-1.78V53.72h0V40.52L192,37.64l-1.19,2.88h0l-6.6-22.85-6.59,22.85h0l-1.19-2.88-1.19,2.88v13.2h0V82.63h-1.78l-4.69-10.85h-7.49l-4.7,10.85H154.7L150,71.78h-7.49l-4.7,10.85v23.43h40.86V93.48a5.49,5.49,0,0,1,11,0v12.58h40.86V82.63ZM149.59,100.7h-6.65V91.32a3.33,3.33,0,0,1,6.65,0Zm18.66,0H161.6V91.32a3.33,3.33,0,0,1,6.65,0Zm15.91-48.82a4.76,4.76,0,1,1,4.76-4.76A4.76,4.76,0,0,1,184.16,51.88Zm22.57,48.82h-6.65V91.32a3.33,3.33,0,0,1,6.65,0Zm18.66,0h-6.65V91.32a3.33,3.33,0,0,1,6.65,0Z"/><path class="cls-2" d="M183.74,18.13c0-1.29.12-2.86.17-4.31-.28-.25-.65-.12-1-.06-1,.2-2.11.39-3.09.6.11-.58.52-.85.43-1.62a4.07,4.07,0,0,0-1-.86c-1.09-.83-2.18-1.66-3.25-2.49.43-.23,1.11-.22,1.17-.77A2.16,2.16,0,0,0,177,8c-.2-.64-.42-1.41-.6-1.95.31,0,.7.14,1.11.2a4.67,4.67,0,0,0,1.2.15.82.82,0,0,0,.49-.46c.11-.23.16-.52.25-.77A20.82,20.82,0,0,1,181,6.94c.14.17.4.53.71.43s.15-.5.08-.83c-.26-1.35-.59-2.92-.82-4.2.4.15.77.58,1.17.74A.63.63,0,0,0,183,2.8a5.32,5.32,0,0,0,.29-.69c.27-.65.64-1.59.88-2.11h0c.24.52.61,1.46.88,2.11a5.32,5.32,0,0,0,.29.69.63.63,0,0,0,.85.28c.4-.16.77-.59,1.17-.74-.23,1.28-.56,2.85-.82,4.2-.07.33-.18.74.08.83s.57-.26.71-.43a19.21,19.21,0,0,1,1.55-1.8c.09.25.14.54.25.77a.82.82,0,0,0,.49.46,4.67,4.67,0,0,0,1.2-.15c.41-.06.8-.16,1.11-.2-.18.54-.4,1.31-.6,2a2.16,2.16,0,0,0-.17.65c.06.55.74.54,1.17.77-1.07.83-2.16,1.66-3.25,2.49a4.07,4.07,0,0,0-1,.86c-.09.77.32,1,.43,1.62-1-.21-2-.4-3.09-.6-.32-.06-.69-.19-1,.06.05,1.45.14,3,.17,4.31Z"/><path class="cls-1" d="M5.14,138.41a4.54,4.54,0,1,1,0-9.07,4.54,4.54,0,1,1,0,9.07Zm0-7.34a2.71,2.71,0,0,0-2.78,2.8,2.68,2.68,0,0,0,2.78,2.8,2.8,2.8,0,0,0,0-5.6Z"/><path class="cls-1" d="M18.67,129.56v1.77H14.3v2h4.1v1.72H14.3v3.1H12.37v-8.64Z"/><path class="cls-1" d="M27.53,129.56v1.77H23.16v2h4.1v1.72h-4.1v3.1H21.23v-8.64Z"/><path class="cls-1" d="M32,129.55v8.65H30.09v-8.65Z"/><path class="cls-1" d="M39.19,138.41c-3.3,0-4.63-2.13-4.63-4.49a4.57,4.57,0,0,1,7.8-3.25l-1.21,1.2a2.82,2.82,0,0,0-2-.72,2.62,2.62,0,0,0-2.72,2.78,2.53,2.53,0,0,0,2.72,2.7,3.23,3.23,0,0,0,2.12-.83l1.2,1.34A4.56,4.56,0,0,1,39.19,138.41Z"/><path class="cls-1" d="M44.78,129.55H51.2v1.76H46.68V133h4.26v1.7H46.68v1.74h4.69v1.78H44.78Z"/><path class="cls-1" d="M62.25,138.41a4.54,4.54,0,1,1,0-9.07,4.54,4.54,0,1,1,0,9.07Zm0-7.34a2.71,2.71,0,0,0-2.78,2.8,2.78,2.78,0,1,0,2.78-2.8Z"/><path class="cls-1" d="M75.78,129.56v1.77H71.4v2h4.11v1.72H71.4v3.1H69.48v-8.64Z"/><path class="cls-1" d="M81.39,129.55h7.18v1.71H85.94v6.94H84v-6.94H81.39Z"/><path class="cls-1" d="M92.8,134.77v3.44H90.87v-8.66H92.8V133h3.86v-3.46h1.91v8.66H96.66v-3.44Z"/><path class="cls-1" d="M101.62,129.55H108v1.76h-4.52V133h4.26v1.7h-4.26v1.74h4.7v1.78h-6.59Z"/><path class="cls-1" d="M114.9,138.2v-8.65H119a3,3,0,0,1,3.31,3.1c0,1.74-1.11,3.06-3.31,3.1h-2.15v2.45Zm5.47-5.51a1.27,1.27,0,0,0-1.39-1.31h-2.15V134H119A1.26,1.26,0,0,0,120.37,132.69Z"/><path class="cls-1" d="M125.07,138.2H123l3.88-8.65H129l3.88,8.65h-2.09l-.63-1.48H125.7Zm4.34-3.19-1.48-3.51-1.5,3.51Z"/><path class="cls-1" d="M138.22,135.35h-1.39v2.85H134.9v-8.65H139a2.92,2.92,0,0,1,3.2,2.91,2.6,2.6,0,0,1-2,2.72l2.37,2.87v.15h-2.14Zm.81-1.63a1.19,1.19,0,0,0,1.27-1.21,1.28,1.28,0,0,0-1.3-1.31h-2.17v2.52Z"/><path class="cls-1" d="M151.24,136.43v1.77H145v-8.65h1.93v6.88Z"/><path class="cls-1" d="M155.44,129.55v8.65h-1.92v-8.65Z"/><path class="cls-1" d="M159.55,138.2h-2.08l3.89-8.65h2.1l3.88,8.65h-2.09l-.63-1.48h-4.44Zm4.34-3.19-1.48-3.51-1.5,3.51Z"/><path class="cls-1" d="M173.89,135.55l-2.59-3.38v6h-1.92v-8.65h2.21l2.52,3.32,2.53-3.32h2.19v8.65H176.9v-6l-2.67,3.36Z"/><path class="cls-1" d="M181.88,129.55h6.42v1.76h-4.53V133H188v1.7h-4.27v1.74h4.7v1.78h-6.59Z"/><path class="cls-1" d="M197,129.55H199v8.65h-1.66l-4.3-5.54.08,2.84v2.7h-2v-8.65h1.66l4.36,5.62-.12-2.72Z"/><path class="cls-1" d="M201.25,129.55h7.18v1.71h-2.64v6.94h-1.91v-6.94h-2.63Z"/><path class="cls-1" d="M211,138.2H209l3.88-8.65h2.1l3.88,8.65h-2.09l-.63-1.48h-4.44Zm4.34-3.19-1.48-3.51-1.5,3.51Z"/><path class="cls-1" d="M224.17,135.35h-1.4v2.85h-1.92v-8.65H225a2.92,2.92,0,0,1,3.2,2.91,2.6,2.6,0,0,1-2,2.72l2.37,2.87v.15h-2.14Zm.8-1.63a1.2,1.2,0,0,0,1.28-1.21,1.28,1.28,0,0,0-1.3-1.31h-2.18v2.52Z"/><path class="cls-1" d="M238.22,129.55v.09l-3.46,5.12v3.44h-1.93v-3.44l-3.31-5.12v-.09h2.23l2.07,3.43,2.19-3.43Z"/><path class="cls-1" d="M251.08,131.89a1.82,1.82,0,0,1-1.15,1.77,2.19,2.19,0,0,1,1.42,2.07,3.49,3.49,0,0,1,0,.44c-.26,1.4-1.41,2-3.15,2h-4.34v-8.65h4.26C249.7,129.55,251.08,130.29,251.08,131.89Zm-1.91.2c0-.5-.36-.88-1.1-.88H245.7v1.7h2.35C248.8,132.91,249.17,132.6,249.17,132.09Zm.17,3.44c0-.61-.44-1-1.29-1H245.7v2h2.37C249,136.52,249.34,136.13,249.34,135.53Z"/><path class="cls-1" d="M257.81,138.41a3.73,3.73,0,0,1-4-4v-4.83h1.92v4.83a2,2,0,0,0,2.12,2.29c1.44,0,1.93-1,1.93-2.29v-4.83h1.92v4.83C261.68,137,260.17,138.41,257.81,138.41Z"/><path class="cls-1" d="M272.45,133.81a4,4,0,0,1-4.3,4.39h-3.54v-8.65h3.54A4,4,0,0,1,272.45,133.81Zm-1.9,0a2.25,2.25,0,0,0-2.4-2.5h-1.64v5.13h1.64C270,136.42,270.55,135,270.55,133.79Z"/><path class="cls-1" d="M279.15,131.09a2.53,2.53,0,0,0-2.72,2.83,2.58,2.58,0,0,0,2.72,2.73,2.82,2.82,0,0,0,1.84-.6v-1.34h-2.06v-1.6h3.73v3.72a4,4,0,0,1-3.52,1.6,4.25,4.25,0,0,1-4.6-4.51,4.3,4.3,0,0,1,4.61-4.6,4.15,4.15,0,0,1,3.23,1.34l-1.2,1.2A3,3,0,0,0,279.15,131.09Z"/><path class="cls-1" d="M285.33,129.55h6.41v1.76h-4.52V133h4.26v1.7h-4.26v1.74h4.7v1.78h-6.59Z"/><path class="cls-1" d="M293.81,129.55H301v1.71h-2.63v6.94h-1.92v-6.94h-2.63Z"/><path class="cls-1" d="M311.18,138.41a4.54,4.54,0,1,1,4.67-4.54A4.32,4.32,0,0,1,311.18,138.41Zm0-7.34a2.71,2.71,0,0,0-2.78,2.8,2.78,2.78,0,1,0,2.78-2.8Z"/><path class="cls-1" d="M324.71,129.56v1.77h-4.37v2h4.1v1.72h-4.1v3.1h-1.93v-8.64Z"/><path class="cls-1" d="M333.58,129.56v1.77H329.2v2h4.1v1.72h-4.1v3.1h-1.93v-8.64Z"/><path class="cls-1" d="M338.05,129.55v8.65h-1.92v-8.65Z"/><path class="cls-1" d="M345.23,138.41c-3.3,0-4.62-2.13-4.62-4.49a4.57,4.57,0,0,1,7.79-3.25l-1.21,1.2a2.82,2.82,0,0,0-2-.72,2.62,2.62,0,0,0-2.72,2.78,2.53,2.53,0,0,0,2.72,2.7,3.23,3.23,0,0,0,2.12-.83l1.2,1.34A4.56,4.56,0,0,1,345.23,138.41Z"/><path class="cls-1" d="M350.83,129.55h6.41v1.76h-4.52V133H357v1.7h-4.26v1.74h4.69v1.78h-6.58Z"/><path class="cls-1" d="M363.38,135.35H362v2.85h-1.93v-8.65h4.1a2.92,2.92,0,0,1,3.2,2.91,2.6,2.6,0,0,1-2,2.72l2.37,2.87v.15h-2.14Zm.8-1.63a1.2,1.2,0,0,0,1.28-1.21,1.28,1.28,0,0,0-1.3-1.31H362v2.52Z"/><path class="cls-1" d="M8.61,116.81a1.81,1.81,0,0,1-1.15,1.76,2.19,2.19,0,0,1,1.42,2.07,2.12,2.12,0,0,1-.05.44c-.26,1.4-1.41,2-3.15,2H1.34v-8.65H5.61C7.24,114.46,8.61,115.2,8.61,116.81Zm-1.9.19c0-.5-.36-.87-1.1-.87H3.23v1.69H5.58C6.33,117.82,6.71,117.51,6.71,117Zm.17,3.44c0-.61-.45-1-1.3-1H3.23v2H5.61C6.48,121.43,6.88,121.05,6.88,120.44Z"/><path class="cls-1" d="M14.84,123.32a3.73,3.73,0,0,1-4-4v-4.83h1.92v4.83a2,2,0,0,0,2.12,2.29c1.43,0,1.93-1,1.93-2.29v-4.83h1.92v4.83C18.71,121.92,17.2,123.32,14.84,123.32Z"/><path class="cls-1" d="M24.45,120.27H23.06v2.84H21.13v-8.65h4.1a2.93,2.93,0,0,1,3.2,2.92,2.59,2.59,0,0,1-2,2.71L28.8,123v.15H26.66Zm.8-1.63a1.2,1.2,0,0,0,1.28-1.22,1.28,1.28,0,0,0-1.3-1.31H23.06v2.53Z"/><path class="cls-1" d="M30.7,114.46h6.42v1.77H32.6v1.66h4.26v1.7H32.6v1.74h4.69v1.78H30.7Z"/><path class="cls-1" d="M40.49,123.11H38.42l3.88-8.65h2.1l3.88,8.65H46.19l-.63-1.48H41.12Zm4.34-3.19-1.48-3.51-1.5,3.51Z"/><path class="cls-1" d="M53.38,123.32a3.73,3.73,0,0,1-4-4v-4.83h1.91v4.83a2,2,0,0,0,2.13,2.29c1.43,0,1.92-1,1.92-2.29v-4.83h1.92v4.83C57.25,121.92,55.74,123.32,53.38,123.32Z"/><path class="cls-1" d="M71.07,118.72a4.05,4.05,0,0,1-4.3,4.39H63.22v-8.65h3.55A4,4,0,0,1,71.07,118.72Zm-1.91,0a2.25,2.25,0,0,0-2.39-2.5H65.12v5.13h1.65C68.64,121.33,69.16,120,69.16,118.7Z"/><path class="cls-1" d="M77,123.32a3.73,3.73,0,0,1-4-4v-4.83h1.91v4.83a2,2,0,0,0,2.13,2.29c1.43,0,1.93-1,1.93-2.29v-4.83H80.9v4.83C80.9,121.92,79.39,123.32,77,123.32Z"/><path class="cls-1" d="M94.72,118.72c0,2.28-1.27,4.39-4.3,4.39H86.87v-8.65h3.55A4,4,0,0,1,94.72,118.72Zm-1.9,0a2.25,2.25,0,0,0-2.4-2.5H88.77v5.13h1.65C92.3,121.33,92.82,120,92.82,118.7Z"/><path class="cls-1" d="M98.71,114.46v8.65H96.79v-8.65Z"/><path class="cls-1" d="M104.58,120.27h-1.4v2.84h-1.93v-8.65h4.11a2.93,2.93,0,0,1,3.2,2.92,2.59,2.59,0,0,1-2,2.71l2.37,2.87v.15h-2.14Zm.8-1.63a1.21,1.21,0,0,0,1.28-1.22,1.28,1.28,0,0,0-1.3-1.31h-2.18v2.53Z"/><path class="cls-1" d="M110.83,114.46h6.42v1.77h-4.53v1.66H117v1.7h-4.27v1.74h4.7v1.78h-6.59Z"/><path class="cls-1" d="M123.6,123.32c-3.3,0-4.62-2.13-4.62-4.49a4.57,4.57,0,0,1,7.79-3.25l-1.21,1.2a2.82,2.82,0,0,0-2-.72,2.63,2.63,0,0,0-2.72,2.79,2.52,2.52,0,0,0,2.72,2.69,3.23,3.23,0,0,0,2.12-.83l1.2,1.34A4.52,4.52,0,0,1,123.6,123.32Z"/><path class="cls-1" d="M127.93,114.46h7.19v1.72h-2.64v6.93h-1.91v-6.93h-2.64Z"/><path class="cls-1" d="M136.91,114.46h6.41v1.77H138.8v1.66h4.26v1.7H138.8v1.74h4.7v1.78h-6.59Z"/><path class="cls-1" d="M149.53,123.32a3.73,3.73,0,0,1-4-4v-4.83h1.91v4.83a2,2,0,0,0,2.13,2.29c1.43,0,1.93-1,1.93-2.29v-4.83h1.91v4.83C153.39,121.92,151.89,123.32,149.53,123.32Z"/><path class="cls-1" d="M159.14,120.27h-1.4v2.84h-1.93v-8.65h4.11a2.93,2.93,0,0,1,3.2,2.92,2.59,2.59,0,0,1-2,2.71l2.37,2.87v.15h-2.14Zm.8-1.63a1.21,1.21,0,0,0,1.28-1.22,1.28,1.28,0,0,0-1.3-1.31h-2.18v2.53Z"/><path class="cls-1" d="M168.94,123.11v-8.65H173a3,3,0,0,1,3.31,3.1c0,1.74-1.11,3.07-3.31,3.1h-2.15v2.45Zm5.46-5.51a1.27,1.27,0,0,0-1.38-1.31h-2.15v2.6H173A1.26,1.26,0,0,0,174.4,117.6Z"/><path class="cls-1" d="M178.6,123.11h-2.07l3.88-8.65h2.1l3.88,8.65H184.3l-.63-1.48h-4.44Zm4.34-3.19-1.48-3.51-1.5,3.51Z"/><path class="cls-1" d="M191.25,120.27h-1.4v2.84h-1.93v-8.65H192a2.93,2.93,0,0,1,3.2,2.92,2.58,2.58,0,0,1-2,2.71L195.6,123v.15h-2.14Zm.8-1.63a1.2,1.2,0,0,0,1.27-1.22,1.28,1.28,0,0,0-1.3-1.31h-2.17v2.53Z"/><path class="cls-1" d="M203.75,121.34v1.77H197.5v-8.65h1.93v6.88Z"/><path class="cls-1" d="M205.53,114.46h6.41v1.77h-4.52v1.66h4.26v1.7h-4.26v1.74h4.7v1.78h-6.59Z"/><path class="cls-1" d="M218.77,120.47l-2.59-3.39v6h-1.93v-8.65h2.22L219,117.8l2.53-3.33h2.19v8.65h-1.93v-6l-2.67,3.37Z"/><path class="cls-1" d="M226.25,114.46h6.42v1.77h-4.52v1.66h4.26v1.7h-4.26v1.74h4.69v1.78h-6.59Z"/><path class="cls-1" d="M240.87,114.46h1.94v8.65h-1.65l-4.3-5.54.07,2.85v2.69h-2v-8.65h1.65l4.37,5.62-.13-2.72Z"/><path class="cls-1" d="M244.6,114.46h7.19v1.72h-2.64v6.93h-1.91v-6.93H244.6Z"/><path class="cls-1" d="M253.87,123.11H251.8l3.88-8.65h2.1l3.88,8.65h-2.09l-.63-1.48H254.5Zm4.34-3.19-1.48-3.51-1.5,3.51Z"/><path class="cls-1" d="M265.11,114.46v8.65h-1.92v-8.65Z"/><path class="cls-1" d="M271,120.27h-1.4v2.84h-1.93v-8.65h4.11a2.93,2.93,0,0,1,3.2,2.92,2.59,2.59,0,0,1-2,2.71l2.37,2.87v.15h-2.14Zm.8-1.63a1.2,1.2,0,0,0,1.27-1.22,1.27,1.27,0,0,0-1.29-1.31h-2.18v2.53Z"/><path class="cls-1" d="M277.23,114.46h6.41v1.77h-4.52v1.66h4.26v1.7h-4.26v1.74h4.7v1.78h-6.59Z"/><path class="cls-1" d="M297.35,118.72c0,2.28-1.27,4.39-4.3,4.39H289.5v-8.65h3.55A4,4,0,0,1,297.35,118.72Zm-1.9,0a2.25,2.25,0,0,0-2.4-2.5H291.4v5.13h1.65C294.93,121.33,295.45,120,295.45,118.7Z"/><path class="cls-1" d="M303.32,123.32a3.73,3.73,0,0,1-4-4v-4.83h1.92v4.83a2,2,0,0,0,2.12,2.29c1.44,0,1.93-1,1.93-2.29v-4.83h1.92v4.83C307.19,121.92,305.68,123.32,303.32,123.32Z"/><path class="cls-1" d="M320.42,116.81a1.81,1.81,0,0,1-1.15,1.76,2.19,2.19,0,0,1,1.42,2.07,2.12,2.12,0,0,1-.05.44c-.26,1.4-1.41,2-3.15,2h-4.34v-8.65h4.27C319.05,114.46,320.42,115.2,320.42,116.81Zm-1.9.19c0-.5-.36-.87-1.1-.87H315v1.69h2.35C318.15,117.82,318.52,117.51,318.52,117Zm.17,3.44c0-.61-.44-1-1.3-1H315v2h2.38C318.29,121.43,318.69,121.05,318.69,120.44Z"/><path class="cls-1" d="M326.65,123.32a3.73,3.73,0,0,1-4-4v-4.83h1.92v4.83a2,2,0,0,0,2.12,2.29c1.44,0,1.93-1,1.93-2.29v-4.83h1.92v4.83C330.52,121.92,329,123.32,326.65,123.32Z"/><path class="cls-1" d="M340.79,118.72a4.05,4.05,0,0,1-4.3,4.39h-3.55v-8.65h3.55A4,4,0,0,1,340.79,118.72Zm-1.91,0a2.25,2.25,0,0,0-2.39-2.5h-1.65v5.13h1.65C338.36,121.33,338.88,120,338.88,118.7Z"/><path class="cls-1" d="M347,116a2.52,2.52,0,0,0-2.72,2.83,2.58,2.58,0,0,0,2.72,2.73,2.78,2.78,0,0,0,1.84-.6v-1.34h-2.07V118h3.74v3.72a4,4,0,0,1-3.53,1.61,4.56,4.56,0,1,1,0-9.11,4.13,4.13,0,0,1,3.22,1.33l-1.2,1.2A3,3,0,0,0,347,116Z"/><path class="cls-1" d="M352.65,114.46h6.41v1.77h-4.52v1.66h4.26v1.7h-4.26v1.74h4.7v1.78h-6.59Z"/><path class="cls-1" d="M360.62,114.46h7.18v1.72h-2.63v6.93h-1.92v-6.93h-2.63Z"/></svg>