<?xml version="1.0" encoding="utf-8"?>
<!-- Generator: Adobe Illustrator 23.0.1, SVG Export Plug-In . SVG Version: 6.00 Build 0)  -->
<svg version="1.1" xmlns="http://www.w3.org/2000/svg" xmlns:xlink="http://www.w3.org/1999/xlink" x="0px" y="0px"
	 viewBox="0 0 369.18 141.88" style="enable-background:new 0 0 369.18 141.88;" xml:space="preserve">
<style type="text/css">
	.st0{fill:#2A5673;}
	.st1{fill-rule:evenodd;clip-rule:evenodd;fill:#B8232F;}
	.st2{display:none;}
	.st3{display:inline;fill:#2A5673;}
	.st4{display:inline;fill-rule:evenodd;clip-rule:evenodd;fill:#B8232F;}
	.st5{display:inline;}
</style>
<g id="Live">
	<path class="st0" d="M225.81,71.78h-7.49l-4.69,10.86h-1.78l-4.69-10.86h-7.49l-4.69,10.86h-1.78V53.72h-0.01v-13.2l-1.19-2.89
		l-1.19,2.89h-0.03l-6.6-22.86l-6.6,22.86h-0.03l-1.19-2.89l-1.19,2.89v13.2h-0.01v28.91h-1.78l-4.69-10.86h-7.49l-4.69,10.86h-1.78
		l-4.69-10.86h-7.49l-4.69,10.86v23.43h37.32h3.54V93.48c0-3.02,2.47-5.49,5.49-5.49c3.02,0,5.49,2.47,5.49,5.49v12.58h3.54h37.32
		V82.63L225.81,71.78z M149.59,100.7h-6.65v-9.38c0-1.83,1.5-3.32,3.32-3.32c1.83,0,3.32,1.5,3.32,3.32V100.7z M168.25,100.7h-6.65
		v-9.38c0-1.83,1.5-3.32,3.32-3.32c1.83,0,3.32,1.5,3.32,3.32V100.7z M184.16,51.88c-2.63,0-4.76-2.13-4.76-4.76
		s2.13-4.76,4.76-4.76s4.76,2.13,4.76,4.76S186.79,51.88,184.16,51.88z M206.73,100.7h-6.65v-9.38c0-1.83,1.5-3.32,3.32-3.32
		c1.83,0,3.32,1.5,3.32,3.32V100.7z M225.39,100.7h-6.65v-9.38c0-1.83,1.5-3.32,3.32-3.32c1.83,0,3.32,1.5,3.32,3.32V100.7z"/>
	<path class="st1" d="M183.74,18.13c0.04-1.29,0.12-2.87,0.17-4.31c-0.28-0.25-0.64-0.12-0.97-0.06c-1.03,0.2-2.11,0.38-3.08,0.6
		c0.1-0.58,0.51-0.86,0.43-1.63c-0.26-0.38-0.68-0.59-1.03-0.86c-1.09-0.83-2.18-1.66-3.26-2.48c0.43-0.24,1.12-0.23,1.17-0.77
		c0.02-0.18-0.1-0.41-0.17-0.66c-0.2-0.64-0.42-1.41-0.6-1.94c0.31,0.03,0.7,0.13,1.11,0.2c0.41,0.07,0.9,0.2,1.2,0.14
		c0.22-0.04,0.39-0.27,0.49-0.46c0.11-0.23,0.16-0.52,0.26-0.77c0.51,0.47,1.03,1.18,1.54,1.8c0.14,0.17,0.41,0.53,0.71,0.43
		c0.26-0.08,0.15-0.49,0.09-0.83c-0.26-1.35-0.59-2.92-0.83-4.2c0.41,0.15,0.77,0.58,1.17,0.74c0.38,0.15,0.67,0.01,0.86-0.29
		c0.11-0.17,0.18-0.43,0.29-0.69c0.28-0.65,0.64-1.6,0.89-2.11h0c0.25,0.52,0.61,1.46,0.89,2.11c0.11,0.25,0.18,0.52,0.29,0.69
		c0.19,0.3,0.47,0.44,0.86,0.29c0.4-0.16,0.76-0.59,1.17-0.74c-0.24,1.27-0.57,2.84-0.83,4.2c-0.07,0.33-0.17,0.74,0.09,0.83
		c0.31,0.1,0.57-0.26,0.71-0.43c0.51-0.62,1.03-1.32,1.54-1.8c0.1,0.25,0.14,0.54,0.26,0.77c0.09,0.19,0.26,0.42,0.49,0.46
		c0.29,0.05,0.79-0.07,1.2-0.14c0.41-0.07,0.8-0.17,1.11-0.2c-0.18,0.54-0.4,1.3-0.6,1.94c-0.08,0.25-0.19,0.48-0.17,0.66
		c0.06,0.55,0.74,0.53,1.17,0.77c-1.07,0.83-2.16,1.65-3.26,2.48c-0.35,0.27-0.77,0.48-1.03,0.86c-0.08,0.77,0.32,1.05,0.43,1.63
		c-0.97-0.22-2.05-0.4-3.08-0.6c-0.33-0.06-0.69-0.19-0.97,0.06c0.05,1.45,0.14,3.02,0.17,4.31
		C184.44,18.13,183.86,18.13,183.74,18.13z"/>
	<g>
		<g>
			<path class="st0" d="M5.14,123.32c-2.77,0-4.67-1.72-4.67-4.54s1.9-4.54,4.67-4.54s4.67,1.72,4.67,4.54S7.91,123.32,5.14,123.32z
				 M5.14,115.98c-1.64,0-2.78,1.24-2.78,2.81c0,1.62,1.14,2.79,2.78,2.79c1.68,0,2.78-1.17,2.78-2.79
				C7.92,117.2,6.82,115.98,5.14,115.98z"/>
			<path class="st0" d="M18.67,114.47v1.77H14.3v2.05h4.1v1.72h-4.1v3.1h-1.93v-8.64H18.67z"/>
			<path class="st0" d="M27.53,114.47v1.77h-4.38v2.05h4.1v1.72h-4.1v3.1h-1.93v-8.64H27.53z"/>
			<path class="st0" d="M32.01,114.46v8.65h-1.92v-8.65H32.01z"/>
			<path class="st0" d="M39.19,123.32c-3.3,0-4.62-2.13-4.62-4.49c0-2.24,1.43-4.59,4.62-4.59c1.19,0,2.29,0.45,3.18,1.33l-1.21,1.2
				c-0.53-0.51-1.27-0.72-1.97-0.72c-1.98,0-2.72,1.53-2.72,2.78c0,1.26,0.7,2.69,2.72,2.69c0.69,0,1.59-0.3,2.13-0.83l1.2,1.33
				C41.62,122.94,40.47,123.32,39.19,123.32z"/>
			<path class="st0" d="M44.78,114.46h6.42v1.77h-4.52v1.67h4.26v1.69h-4.26v1.74h4.7v1.78h-6.59V114.46z"/>
			<path class="st0" d="M62.25,123.32c-2.77,0-4.67-1.72-4.67-4.54s1.9-4.54,4.67-4.54s4.67,1.72,4.67,4.54
				S65.02,123.32,62.25,123.32z M62.25,115.98c-1.64,0-2.78,1.24-2.78,2.81c0,1.62,1.14,2.79,2.78,2.79c1.68,0,2.78-1.17,2.78-2.79
				C65.03,117.2,63.93,115.98,62.25,115.98z"/>
			<path class="st0" d="M75.78,114.47v1.77H71.4v2.05h4.1v1.72h-4.1v3.1h-1.93v-8.64H75.78z"/>
			<path class="st0" d="M81.39,114.46h7.18v1.72h-2.63v6.93h-1.92v-6.93h-2.63V114.46z"/>
			<path class="st0" d="M92.8,119.69v3.44h-1.93v-8.66h1.93v3.46h3.87v-3.46h1.9v8.66h-1.9v-3.44H92.8z"/>
			<path class="st0" d="M101.62,114.46h6.42v1.77h-4.52v1.67h4.26v1.69h-4.26v1.74h4.7v1.78h-6.59V114.46z"/>
			<path class="st0" d="M114.9,123.11v-8.65h4.08c2.22,0,3.31,1.42,3.31,3.1c0,1.74-1.11,3.07-3.31,3.1h-2.15v2.45H114.9z
				 M120.37,117.6c0-0.69-0.46-1.31-1.38-1.31h-2.15v2.61h2.15C119.91,118.9,120.37,118.29,120.37,117.6z"/>
			<path class="st0" d="M125.07,123.11H123l3.88-8.65h2.1l3.88,8.65h-2.09l-0.63-1.48h-4.44L125.07,123.11z M129.41,119.92
				l-1.48-3.51l-1.5,3.51H129.41z"/>
			<path class="st0" d="M138.22,120.27h-1.4v2.84h-1.93v-8.65h4.1c2.09,0,3.2,1.4,3.2,2.92c0,1.13-0.36,2.13-2,2.72l2.37,2.87v0.15
				h-2.14L138.22,120.27z M139.03,118.64c0.89,0,1.27-0.67,1.27-1.21c0-0.59-0.41-1.31-1.3-1.31h-2.17v2.52H139.03z"/>
			<path class="st0" d="M151.24,121.34v1.77h-6.25v-8.65h1.93v6.88H151.24z"/>
			<path class="st0" d="M155.44,114.46v8.65h-1.92v-8.65H155.44z"/>
			<path class="st0" d="M159.55,123.11h-2.08l3.88-8.65h2.1l3.88,8.65h-2.09l-0.63-1.48h-4.44L159.55,123.11z M163.89,119.92
				l-1.48-3.51l-1.5,3.51H163.89z"/>
			<path class="st0" d="M173.89,120.47l-2.58-3.39v6.04h-1.93v-8.65h2.21l2.52,3.33l2.53-3.33h2.19v8.65h-1.93v-6.02l-2.67,3.36
				H173.89z"/>
			<path class="st0" d="M181.88,114.46h6.42v1.77h-4.52v1.67h4.26v1.69h-4.26v1.74h4.7v1.78h-6.59V114.46z"/>
			<path class="st0" d="M197.01,114.46h1.94v8.65h-1.66l-4.3-5.54l0.07,2.84v2.69h-1.95v-8.65h1.66l4.36,5.62l-0.12-2.72V114.46z"/>
			<path class="st0" d="M201.25,114.46h7.18v1.72h-2.63v6.93h-1.92v-6.93h-2.63V114.46z"/>
			<path class="st0" d="M211.02,123.11h-2.08l3.88-8.65h2.1l3.88,8.65h-2.09l-0.63-1.48h-4.44L211.02,123.11z M215.36,119.92
				l-1.48-3.51l-1.5,3.51H215.36z"/>
			<path class="st0" d="M224.17,120.27h-1.4v2.84h-1.93v-8.65h4.1c2.09,0,3.2,1.4,3.2,2.92c0,1.13-0.36,2.13-2,2.72l2.37,2.87v0.15
				h-2.14L224.17,120.27z M224.97,118.64c0.89,0,1.27-0.67,1.27-1.21c0-0.59-0.41-1.31-1.3-1.31h-2.17v2.52H224.97z"/>
			<path class="st0" d="M238.22,114.46v0.1l-3.46,5.12v3.44h-1.93v-3.44l-3.31-5.12v-0.1h2.22l2.08,3.44l2.19-3.44H238.22z"/>
			<path class="st0" d="M251.08,116.81c0,0.73-0.31,1.38-1.15,1.77c0.93,0.33,1.42,1.21,1.42,2.06c0,0.15-0.03,0.3-0.05,0.45
				c-0.26,1.4-1.41,2.03-3.15,2.03h-4.34v-8.65h4.26C249.7,114.46,251.08,115.2,251.08,116.81z M249.17,117.01
				c0-0.51-0.36-0.88-1.1-0.88h-2.37v1.69h2.35C248.8,117.82,249.17,117.51,249.17,117.01z M249.34,120.44
				c0-0.61-0.44-1.01-1.3-1.01h-2.35v2h2.37C248.95,121.43,249.34,121.05,249.34,120.44z"/>
			<path class="st0" d="M257.81,123.32c-2.19,0-4.02-1.27-4.02-4.02v-4.83h1.92v4.83c0,1.5,0.79,2.29,2.13,2.29
				c1.43,0,1.93-0.96,1.93-2.29v-4.83h1.92v4.83C261.68,121.92,260.17,123.32,257.81,123.32z"/>
			<path class="st0" d="M272.45,118.72c0,2.27-1.27,4.39-4.3,4.39h-3.55v-8.65h3.55C271.13,114.46,272.45,116.45,272.45,118.72z
				 M270.55,118.7c0-1.24-0.59-2.5-2.4-2.5h-1.64v5.13h1.64C270.03,121.33,270.55,119.95,270.55,118.7z"/>
			<path class="st0" d="M279.15,116c-1.64,0-2.72,0.94-2.72,2.83c0,1.19,0.68,2.73,2.72,2.73c0.61,0,1.16-0.1,1.84-0.61v-1.33h-2.06
				v-1.61h3.73v3.72c-0.75,1.08-1.93,1.61-3.52,1.61c-3.34,0-4.6-2.31-4.6-4.51c0-2.44,1.43-4.6,4.61-4.6
				c1.19,0,2.24,0.31,3.23,1.33l-1.2,1.2C280.65,116.26,279.84,116,279.15,116z"/>
			<path class="st0" d="M285.33,114.46h6.42v1.77h-4.52v1.67h4.26v1.69h-4.26v1.74h4.7v1.78h-6.59V114.46z"/>
			<path class="st0" d="M293.81,114.46h7.18v1.72h-2.63v6.93h-1.92v-6.93h-2.63V114.46z"/>
			<path class="st0" d="M311.18,123.32c-2.77,0-4.67-1.72-4.67-4.54s1.9-4.54,4.67-4.54s4.67,1.72,4.67,4.54
				S313.95,123.32,311.18,123.32z M311.18,115.98c-1.64,0-2.78,1.24-2.78,2.81c0,1.62,1.14,2.79,2.78,2.79
				c1.68,0,2.78-1.17,2.78-2.79C313.96,117.2,312.86,115.98,311.18,115.98z"/>
			<path class="st0" d="M324.71,114.47v1.77h-4.38v2.05h4.1v1.72h-4.1v3.1h-1.93v-8.64H324.71z"/>
			<path class="st0" d="M333.58,114.47v1.77h-4.38v2.05h4.1v1.72h-4.1v3.1h-1.93v-8.64H333.58z"/>
			<path class="st0" d="M338.05,114.46v8.65h-1.92v-8.65H338.05z"/>
			<path class="st0" d="M345.23,123.32c-3.3,0-4.62-2.13-4.62-4.49c0-2.24,1.43-4.59,4.62-4.59c1.19,0,2.29,0.45,3.18,1.33
				l-1.21,1.2c-0.53-0.51-1.27-0.72-1.97-0.72c-1.98,0-2.72,1.53-2.72,2.78c0,1.26,0.7,2.69,2.72,2.69c0.69,0,1.59-0.3,2.13-0.83
				l1.2,1.33C347.66,122.94,346.51,123.32,345.23,123.32z"/>
			<path class="st0" d="M350.83,114.46h6.42v1.77h-4.52v1.67h4.26v1.69h-4.26v1.74h4.7v1.78h-6.59V114.46z"/>
			<path class="st0" d="M363.38,120.27h-1.4v2.84h-1.93v-8.65h4.1c2.09,0,3.2,1.4,3.2,2.92c0,1.13-0.36,2.13-2,2.72l2.37,2.87v0.15
				h-2.14L363.38,120.27z M364.18,118.64c0.89,0,1.27-0.67,1.27-1.21c0-0.59-0.41-1.31-1.3-1.31h-2.17v2.52H364.18z"/>
		</g>
	</g>
	<g>
		<g>
			<path class="st0" d="M8.61,131.89c0,0.73-0.31,1.38-1.15,1.77c0.93,0.33,1.42,1.21,1.42,2.06c0,0.15-0.02,0.3-0.05,0.45
				c-0.26,1.4-1.41,2.03-3.15,2.03H1.34v-8.65h4.26C7.24,129.55,8.61,130.29,8.61,131.89z M6.71,132.09c0-0.51-0.36-0.88-1.1-0.88
				H3.23v1.69h2.35C6.33,132.91,6.71,132.6,6.71,132.09z M6.88,135.53c0-0.61-0.44-1.01-1.3-1.01H3.23v2h2.37
				C6.48,136.52,6.88,136.13,6.88,135.53z"/>
			<path class="st0" d="M14.84,138.41c-2.19,0-4.02-1.27-4.02-4.02v-4.83h1.92v4.83c0,1.5,0.79,2.29,2.13,2.29
				c1.43,0,1.93-0.96,1.93-2.29v-4.83h1.92v4.83C18.71,137.01,17.2,138.41,14.84,138.41z"/>
			<path class="st0" d="M24.45,135.35h-1.4v2.84h-1.93v-8.65h4.1c2.09,0,3.2,1.4,3.2,2.92c0,1.13-0.36,2.13-2,2.72l2.37,2.87v0.15
				h-2.14L24.45,135.35z M25.25,133.72c0.89,0,1.27-0.67,1.27-1.21c0-0.59-0.41-1.31-1.3-1.31h-2.17v2.52H25.25z"/>
			<path class="st0" d="M30.7,129.55h6.42v1.77H32.6v1.67h4.26v1.69H32.6v1.74h4.7v1.78H30.7V129.55z"/>
			<path class="st0" d="M40.49,138.2h-2.08l3.88-8.65h2.1l3.88,8.65h-2.09l-0.63-1.48h-4.44L40.49,138.2z M44.83,135.01l-1.48-3.51
				l-1.5,3.51H44.83z"/>
			<path class="st0" d="M53.38,138.41c-2.19,0-4.02-1.27-4.02-4.02v-4.83h1.92v4.83c0,1.5,0.79,2.29,2.13,2.29
				c1.43,0,1.93-0.96,1.93-2.29v-4.83h1.92v4.83C57.25,137.01,55.74,138.41,53.38,138.41z"/>
			<path class="st0" d="M71.07,133.81c0,2.27-1.27,4.39-4.3,4.39h-3.55v-8.65h3.55C69.74,129.55,71.07,131.54,71.07,133.81z
				 M69.16,133.78c0-1.24-0.59-2.5-2.4-2.5h-1.64v5.13h1.64C68.64,136.42,69.16,135.03,69.16,133.78z"/>
			<path class="st0" d="M77.03,138.41c-2.19,0-4.02-1.27-4.02-4.02v-4.83h1.92v4.83c0,1.5,0.79,2.29,2.13,2.29
				c1.43,0,1.93-0.96,1.93-2.29v-4.83h1.92v4.83C80.9,137.01,79.39,138.41,77.03,138.41z"/>
			<path class="st0" d="M94.72,133.81c0,2.27-1.27,4.39-4.3,4.39h-3.55v-8.65h3.55C93.4,129.55,94.72,131.54,94.72,133.81z
				 M92.82,133.78c0-1.24-0.59-2.5-2.4-2.5h-1.64v5.13h1.64C92.3,136.42,92.82,135.03,92.82,133.78z"/>
			<path class="st0" d="M98.71,129.55v8.65h-1.92v-8.65H98.71z"/>
			<path class="st0" d="M104.58,135.35h-1.4v2.84h-1.93v-8.65h4.1c2.09,0,3.2,1.4,3.2,2.92c0,1.13-0.36,2.13-2,2.72l2.37,2.87v0.15
				h-2.14L104.58,135.35z M105.38,133.72c0.89,0,1.27-0.67,1.27-1.21c0-0.59-0.41-1.31-1.3-1.31h-2.17v2.52H105.38z"/>
			<path class="st0" d="M110.83,129.55h6.42v1.77h-4.52v1.67h4.26v1.69h-4.26v1.74h4.7v1.78h-6.59V129.55z"/>
			<path class="st0" d="M123.6,138.41c-3.3,0-4.62-2.13-4.62-4.49c0-2.24,1.43-4.59,4.62-4.59c1.19,0,2.29,0.45,3.18,1.33l-1.21,1.2
				c-0.53-0.51-1.27-0.72-1.97-0.72c-1.98,0-2.72,1.53-2.72,2.78c0,1.26,0.7,2.69,2.72,2.69c0.69,0,1.59-0.3,2.13-0.83l1.2,1.33
				C126.03,138.02,124.88,138.41,123.6,138.41z"/>
			<path class="st0" d="M127.93,129.55h7.18v1.72h-2.63v6.93h-1.92v-6.93h-2.63V129.55z"/>
			<path class="st0" d="M136.91,129.55h6.42v1.77h-4.52v1.67h4.26v1.69h-4.26v1.74h4.7v1.78h-6.59V129.55z"/>
			<path class="st0" d="M149.53,138.41c-2.19,0-4.02-1.27-4.02-4.02v-4.83h1.92v4.83c0,1.5,0.79,2.29,2.13,2.29
				c1.43,0,1.93-0.96,1.93-2.29v-4.83h1.92v4.83C153.39,137.01,151.89,138.41,149.53,138.41z"/>
			<path class="st0" d="M159.14,135.35h-1.4v2.84h-1.93v-8.65h4.1c2.09,0,3.2,1.4,3.2,2.92c0,1.13-0.36,2.13-2,2.72l2.37,2.87v0.15
				h-2.14L159.14,135.35z M159.94,133.72c0.89,0,1.27-0.67,1.27-1.21c0-0.59-0.41-1.31-1.3-1.31h-2.17v2.52H159.94z"/>
			<path class="st0" d="M168.94,138.2v-8.65h4.08c2.22,0,3.31,1.42,3.31,3.1c0,1.74-1.11,3.07-3.31,3.1h-2.15v2.45H168.94z
				 M174.4,132.69c0-0.69-0.46-1.31-1.38-1.31h-2.15v2.61h2.15C173.94,133.98,174.4,133.38,174.4,132.69z"/>
			<path class="st0" d="M178.6,138.2h-2.08l3.88-8.65h2.1l3.88,8.65h-2.09l-0.63-1.48h-4.44L178.6,138.2z M182.94,135.01l-1.48-3.51
				l-1.5,3.51H182.94z"/>
			<path class="st0" d="M191.25,135.35h-1.4v2.84h-1.93v-8.65h4.1c2.09,0,3.2,1.4,3.2,2.92c0,1.13-0.36,2.13-2,2.72l2.37,2.87v0.15
				h-2.14L191.25,135.35z M192.05,133.72c0.89,0,1.27-0.67,1.27-1.21c0-0.59-0.41-1.31-1.3-1.31h-2.17v2.52H192.05z"/>
			<path class="st0" d="M203.75,136.43v1.77h-6.25v-8.65h1.93v6.88H203.75z"/>
			<path class="st0" d="M205.53,129.55h6.42v1.77h-4.52v1.67h4.26v1.69h-4.26v1.74h4.7v1.78h-6.59V129.55z"/>
			<path class="st0" d="M218.77,135.55l-2.58-3.39v6.04h-1.93v-8.65h2.21l2.52,3.33l2.53-3.33h2.19v8.65h-1.93v-6.02l-2.67,3.36
				H218.77z"/>
			<path class="st0" d="M226.25,129.55h6.42v1.77h-4.52v1.67h4.26v1.69h-4.26v1.74h4.7v1.78h-6.59V129.55z"/>
			<path class="st0" d="M240.87,129.55h1.94v8.65h-1.66l-4.3-5.54l0.07,2.84v2.69h-1.95v-8.65h1.66l4.36,5.62l-0.12-2.72V129.55z"/>
			<path class="st0" d="M244.6,129.55h7.18v1.72h-2.63v6.93h-1.92v-6.93h-2.63V129.55z"/>
			<path class="st0" d="M253.87,138.2h-2.08l3.88-8.65h2.1l3.88,8.65h-2.09l-0.63-1.48h-4.44L253.87,138.2z M258.21,135.01
				l-1.48-3.51l-1.5,3.51H258.21z"/>
			<path class="st0" d="M265.11,129.55v8.65h-1.92v-8.65H265.11z"/>
			<path class="st0" d="M270.98,135.35h-1.4v2.84h-1.93v-8.65h4.1c2.09,0,3.2,1.4,3.2,2.92c0,1.13-0.36,2.13-2,2.72l2.37,2.87v0.15
				h-2.14L270.98,135.35z M271.78,133.72c0.89,0,1.27-0.67,1.27-1.21c0-0.59-0.41-1.31-1.3-1.31h-2.17v2.52H271.78z"/>
			<path class="st0" d="M277.23,129.55h6.42v1.77h-4.52v1.67h4.26v1.69h-4.26v1.74h4.7v1.78h-6.59V129.55z"/>
			<path class="st0" d="M297.35,133.81c0,2.27-1.27,4.39-4.3,4.39h-3.55v-8.65h3.55C296.03,129.55,297.35,131.54,297.35,133.81z
				 M295.45,133.78c0-1.24-0.59-2.5-2.4-2.5h-1.64v5.13h1.64C294.93,136.42,295.45,135.03,295.45,133.78z"/>
			<path class="st0" d="M303.32,138.41c-2.19,0-4.02-1.27-4.02-4.02v-4.83h1.92v4.83c0,1.5,0.79,2.29,2.13,2.29
				c1.43,0,1.93-0.96,1.93-2.29v-4.83h1.92v4.83C307.19,137.01,305.68,138.41,303.32,138.41z"/>
			<path class="st0" d="M320.42,131.89c0,0.73-0.31,1.38-1.15,1.77c0.93,0.33,1.42,1.21,1.42,2.06c0,0.15-0.03,0.3-0.05,0.45
				c-0.26,1.4-1.41,2.03-3.15,2.03h-4.34v-8.65h4.26C319.05,129.55,320.42,130.29,320.42,131.89z M318.52,132.09
				c0-0.51-0.36-0.88-1.1-0.88h-2.37v1.69h2.35C318.15,132.91,318.52,132.6,318.52,132.09z M318.69,135.53
				c0-0.61-0.44-1.01-1.3-1.01h-2.35v2h2.37C318.29,136.52,318.69,136.13,318.69,135.53z"/>
			<path class="st0" d="M326.65,138.41c-2.19,0-4.02-1.27-4.02-4.02v-4.83h1.92v4.83c0,1.5,0.79,2.29,2.13,2.29
				c1.43,0,1.93-0.96,1.93-2.29v-4.83h1.92v4.83C330.52,137.01,329.01,138.41,326.65,138.41z"/>
			<path class="st0" d="M340.79,133.81c0,2.27-1.27,4.39-4.3,4.39h-3.55v-8.65h3.55C339.46,129.55,340.79,131.54,340.79,133.81z
				 M338.88,133.78c0-1.24-0.59-2.5-2.4-2.5h-1.64v5.13h1.64C338.36,136.42,338.88,135.03,338.88,133.78z"/>
			<path class="st0" d="M346.98,131.09c-1.64,0-2.72,0.94-2.72,2.83c0,1.19,0.68,2.73,2.72,2.73c0.61,0,1.16-0.1,1.84-0.61v-1.33
				h-2.06v-1.61h3.73v3.72c-0.75,1.08-1.93,1.61-3.52,1.61c-3.34,0-4.6-2.31-4.6-4.51c0-2.44,1.43-4.6,4.61-4.6
				c1.19,0,2.24,0.31,3.23,1.33l-1.2,1.2C348.47,131.35,347.67,131.09,346.98,131.09z"/>
			<path class="st0" d="M352.65,129.55h6.42v1.77h-4.52v1.67h4.26v1.69h-4.26v1.74h4.7v1.78h-6.59V129.55z"/>
			<path class="st0" d="M360.62,129.55h7.18v1.72h-2.63v6.93h-1.92v-6.93h-2.63V129.55z"/>
		</g>
	</g>
</g>
<g id="Outlined" class="st2">
	<path class="st3" d="M225.81,71.78h-7.49l-4.69,10.86h-1.78l-4.69-10.86h-7.49l-4.69,10.86h-1.78V53.72h-0.01v-13.2l-1.19-2.89
		l-1.19,2.89h-0.03l-6.6-22.86l-6.6,22.86h-0.03l-1.19-2.89l-1.19,2.89v13.2h-0.01v28.91h-1.78l-4.69-10.86h-7.49l-4.69,10.86h-1.78
		l-4.69-10.86h-7.49l-4.69,10.86v23.43h37.32h3.54V93.48c0-3.02,2.47-5.49,5.49-5.49c3.02,0,5.49,2.47,5.49,5.49v12.58h3.54h37.32
		V82.63L225.81,71.78z M149.59,100.7h-6.65v-9.38c0-1.83,1.5-3.32,3.32-3.32c1.83,0,3.32,1.5,3.32,3.32V100.7z M168.25,100.7h-6.65
		v-9.38c0-1.83,1.5-3.32,3.32-3.32c1.83,0,3.32,1.5,3.32,3.32V100.7z M184.16,51.88c-2.63,0-4.76-2.13-4.76-4.76
		s2.13-4.76,4.76-4.76s4.76,2.13,4.76,4.76S186.79,51.88,184.16,51.88z M206.73,100.7h-6.65v-9.38c0-1.83,1.5-3.32,3.32-3.32
		c1.83,0,3.32,1.5,3.32,3.32V100.7z M225.39,100.7h-6.65v-9.38c0-1.83,1.5-3.32,3.32-3.32c1.83,0,3.32,1.5,3.32,3.32V100.7z"/>
	<path class="st4" d="M183.74,18.13c0.04-1.29,0.12-2.87,0.17-4.31c-0.28-0.25-0.64-0.12-0.97-0.06c-1.03,0.2-2.11,0.38-3.08,0.6
		c0.1-0.58,0.51-0.86,0.43-1.63c-0.26-0.38-0.68-0.59-1.03-0.86c-1.09-0.83-2.18-1.66-3.26-2.48c0.43-0.24,1.12-0.23,1.17-0.77
		c0.02-0.18-0.1-0.41-0.17-0.66c-0.2-0.64-0.42-1.41-0.6-1.94c0.31,0.03,0.7,0.13,1.11,0.2c0.41,0.07,0.9,0.2,1.2,0.14
		c0.22-0.04,0.39-0.27,0.49-0.46c0.11-0.23,0.16-0.52,0.26-0.77c0.51,0.47,1.03,1.18,1.54,1.8c0.14,0.17,0.41,0.53,0.71,0.43
		c0.26-0.08,0.15-0.49,0.09-0.83c-0.26-1.35-0.59-2.92-0.83-4.2c0.41,0.15,0.77,0.58,1.17,0.74c0.38,0.15,0.67,0.01,0.86-0.29
		c0.11-0.17,0.18-0.43,0.29-0.69c0.28-0.65,0.64-1.6,0.89-2.11h0c0.25,0.52,0.61,1.46,0.89,2.11c0.11,0.25,0.18,0.52,0.29,0.69
		c0.19,0.3,0.47,0.44,0.86,0.29c0.4-0.16,0.76-0.59,1.17-0.74c-0.24,1.27-0.57,2.84-0.83,4.2c-0.07,0.33-0.17,0.74,0.09,0.83
		c0.31,0.1,0.57-0.26,0.71-0.43c0.51-0.62,1.03-1.32,1.54-1.8c0.1,0.25,0.14,0.54,0.26,0.77c0.09,0.19,0.26,0.42,0.49,0.46
		c0.29,0.05,0.79-0.07,1.2-0.14c0.41-0.07,0.8-0.17,1.11-0.2c-0.18,0.54-0.4,1.3-0.6,1.94c-0.08,0.25-0.19,0.48-0.17,0.66
		c0.06,0.55,0.74,0.53,1.17,0.77c-1.07,0.83-2.16,1.65-3.26,2.48c-0.35,0.27-0.77,0.48-1.03,0.86c-0.08,0.77,0.32,1.05,0.43,1.63
		c-0.97-0.22-2.05-0.4-3.08-0.6c-0.33-0.06-0.69-0.19-0.97,0.06c0.05,1.45,0.14,3.02,0.17,4.31
		C184.44,18.13,183.86,18.13,183.74,18.13z"/>
	<g class="st5">
		<g>
			<path class="st0" d="M5.14,123.32c-2.77,0-4.67-1.72-4.67-4.54s1.9-4.54,4.67-4.54s4.67,1.72,4.67,4.54S7.91,123.32,5.14,123.32z
				 M5.14,115.98c-1.64,0-2.78,1.24-2.78,2.81c0,1.62,1.14,2.79,2.78,2.79c1.68,0,2.78-1.17,2.78-2.79
				C7.92,117.2,6.82,115.98,5.14,115.98z"/>
			<path class="st0" d="M18.67,114.47v1.77H14.3v2.05h4.1v1.72h-4.1v3.1h-1.93v-8.64H18.67z"/>
			<path class="st0" d="M27.53,114.47v1.77h-4.38v2.05h4.1v1.72h-4.1v3.1h-1.93v-8.64H27.53z"/>
			<path class="st0" d="M32.01,114.46v8.65h-1.92v-8.65H32.01z"/>
			<path class="st0" d="M39.19,123.32c-3.3,0-4.62-2.13-4.62-4.49c0-2.24,1.43-4.59,4.62-4.59c1.19,0,2.29,0.45,3.18,1.33l-1.21,1.2
				c-0.53-0.51-1.27-0.72-1.97-0.72c-1.98,0-2.72,1.53-2.72,2.78c0,1.26,0.7,2.69,2.72,2.69c0.69,0,1.59-0.3,2.13-0.83l1.2,1.33
				C41.62,122.94,40.47,123.32,39.19,123.32z"/>
			<path class="st0" d="M44.78,114.46h6.42v1.77h-4.52v1.67h4.26v1.69h-4.26v1.74h4.7v1.78h-6.59V114.46z"/>
			<path class="st0" d="M62.25,123.32c-2.77,0-4.67-1.72-4.67-4.54s1.9-4.54,4.67-4.54s4.67,1.72,4.67,4.54
				S65.02,123.32,62.25,123.32z M62.25,115.98c-1.64,0-2.78,1.24-2.78,2.81c0,1.62,1.14,2.79,2.78,2.79c1.68,0,2.78-1.17,2.78-2.79
				C65.03,117.2,63.93,115.98,62.25,115.98z"/>
			<path class="st0" d="M75.78,114.47v1.77H71.4v2.05h4.1v1.72h-4.1v3.1h-1.93v-8.64H75.78z"/>
			<path class="st0" d="M81.39,114.46h7.18v1.72h-2.63v6.93h-1.92v-6.93h-2.63V114.46z"/>
			<path class="st0" d="M92.8,119.69v3.44h-1.93v-8.66h1.93v3.46h3.87v-3.46h1.9v8.66h-1.9v-3.44H92.8z"/>
			<path class="st0" d="M101.62,114.46h6.42v1.77h-4.52v1.67h4.26v1.69h-4.26v1.74h4.7v1.78h-6.59V114.46z"/>
			<path class="st0" d="M114.9,123.11v-8.65h4.08c2.22,0,3.31,1.42,3.31,3.1c0,1.74-1.11,3.07-3.31,3.1h-2.15v2.45H114.9z
				 M120.37,117.6c0-0.69-0.46-1.31-1.38-1.31h-2.15v2.61h2.15C119.91,118.9,120.37,118.29,120.37,117.6z"/>
			<path class="st0" d="M125.07,123.11H123l3.88-8.65h2.1l3.88,8.65h-2.09l-0.63-1.48h-4.44L125.07,123.11z M129.41,119.92
				l-1.48-3.51l-1.5,3.51H129.41z"/>
			<path class="st0" d="M138.22,120.27h-1.4v2.84h-1.93v-8.65h4.1c2.09,0,3.2,1.4,3.2,2.92c0,1.13-0.36,2.13-2,2.72l2.37,2.87v0.15
				h-2.14L138.22,120.27z M139.03,118.64c0.89,0,1.27-0.67,1.27-1.21c0-0.59-0.41-1.31-1.3-1.31h-2.17v2.52H139.03z"/>
			<path class="st0" d="M151.24,121.34v1.77h-6.25v-8.65h1.93v6.88H151.24z"/>
			<path class="st0" d="M155.44,114.46v8.65h-1.92v-8.65H155.44z"/>
			<path class="st0" d="M159.55,123.11h-2.08l3.88-8.65h2.1l3.88,8.65h-2.09l-0.63-1.48h-4.44L159.55,123.11z M163.89,119.92
				l-1.48-3.51l-1.5,3.51H163.89z"/>
			<path class="st0" d="M173.89,120.47l-2.58-3.39v6.04h-1.93v-8.65h2.21l2.52,3.33l2.53-3.33h2.19v8.65h-1.93v-6.02l-2.67,3.36
				H173.89z"/>
			<path class="st0" d="M181.88,114.46h6.42v1.77h-4.52v1.67h4.26v1.69h-4.26v1.74h4.7v1.78h-6.59V114.46z"/>
			<path class="st0" d="M197.01,114.46h1.94v8.65h-1.66l-4.3-5.54l0.07,2.84v2.69h-1.95v-8.65h1.66l4.36,5.62l-0.12-2.72V114.46z"/>
			<path class="st0" d="M201.25,114.46h7.18v1.72h-2.63v6.93h-1.92v-6.93h-2.63V114.46z"/>
			<path class="st0" d="M211.02,123.11h-2.08l3.88-8.65h2.1l3.88,8.65h-2.09l-0.63-1.48h-4.44L211.02,123.11z M215.36,119.92
				l-1.48-3.51l-1.5,3.51H215.36z"/>
			<path class="st0" d="M224.17,120.27h-1.4v2.84h-1.93v-8.65h4.1c2.09,0,3.2,1.4,3.2,2.92c0,1.13-0.36,2.13-2,2.72l2.37,2.87v0.15
				h-2.14L224.17,120.27z M224.97,118.64c0.89,0,1.27-0.67,1.27-1.21c0-0.59-0.41-1.31-1.3-1.31h-2.17v2.52H224.97z"/>
			<path class="st0" d="M238.22,114.46v0.1l-3.46,5.12v3.44h-1.93v-3.44l-3.31-5.12v-0.1h2.22l2.08,3.44l2.19-3.44H238.22z"/>
			<path class="st0" d="M251.08,116.81c0,0.73-0.31,1.38-1.15,1.77c0.93,0.33,1.42,1.21,1.42,2.06c0,0.15-0.03,0.3-0.05,0.45
				c-0.26,1.4-1.41,2.03-3.15,2.03h-4.34v-8.65h4.26C249.7,114.46,251.08,115.2,251.08,116.81z M249.17,117.01
				c0-0.51-0.36-0.88-1.1-0.88h-2.37v1.69h2.35C248.8,117.82,249.17,117.51,249.17,117.01z M249.34,120.44
				c0-0.61-0.44-1.01-1.3-1.01h-2.35v2h2.37C248.95,121.43,249.34,121.05,249.34,120.44z"/>
			<path class="st0" d="M257.81,123.32c-2.19,0-4.02-1.27-4.02-4.02v-4.83h1.92v4.83c0,1.5,0.79,2.29,2.13,2.29
				c1.43,0,1.93-0.96,1.93-2.29v-4.83h1.92v4.83C261.68,121.92,260.17,123.32,257.81,123.32z"/>
			<path class="st0" d="M272.45,118.72c0,2.27-1.27,4.39-4.3,4.39h-3.55v-8.65h3.55C271.13,114.46,272.45,116.45,272.45,118.72z
				 M270.55,118.7c0-1.24-0.59-2.5-2.4-2.5h-1.64v5.13h1.64C270.03,121.33,270.55,119.95,270.55,118.7z"/>
			<path class="st0" d="M279.15,116c-1.64,0-2.72,0.94-2.72,2.83c0,1.19,0.68,2.73,2.72,2.73c0.61,0,1.16-0.1,1.84-0.61v-1.33h-2.06
				v-1.61h3.73v3.72c-0.75,1.08-1.93,1.61-3.52,1.61c-3.34,0-4.6-2.31-4.6-4.51c0-2.44,1.43-4.6,4.61-4.6
				c1.19,0,2.24,0.31,3.23,1.33l-1.2,1.2C280.65,116.26,279.84,116,279.15,116z"/>
			<path class="st0" d="M285.33,114.46h6.42v1.77h-4.52v1.67h4.26v1.69h-4.26v1.74h4.7v1.78h-6.59V114.46z"/>
			<path class="st0" d="M293.81,114.46h7.18v1.72h-2.63v6.93h-1.92v-6.93h-2.63V114.46z"/>
			<path class="st0" d="M311.18,123.32c-2.77,0-4.67-1.72-4.67-4.54s1.9-4.54,4.67-4.54s4.67,1.72,4.67,4.54
				S313.95,123.32,311.18,123.32z M311.18,115.98c-1.64,0-2.78,1.24-2.78,2.81c0,1.62,1.14,2.79,2.78,2.79
				c1.68,0,2.78-1.17,2.78-2.79C313.96,117.2,312.86,115.98,311.18,115.98z"/>
			<path class="st0" d="M324.71,114.47v1.77h-4.38v2.05h4.1v1.72h-4.1v3.1h-1.93v-8.64H324.71z"/>
			<path class="st0" d="M333.58,114.47v1.77h-4.38v2.05h4.1v1.72h-4.1v3.1h-1.93v-8.64H333.58z"/>
			<path class="st0" d="M338.05,114.46v8.65h-1.92v-8.65H338.05z"/>
			<path class="st0" d="M345.23,123.32c-3.3,0-4.62-2.13-4.62-4.49c0-2.24,1.43-4.59,4.62-4.59c1.19,0,2.29,0.45,3.18,1.33
				l-1.21,1.2c-0.53-0.51-1.27-0.72-1.97-0.72c-1.98,0-2.72,1.53-2.72,2.78c0,1.26,0.7,2.69,2.72,2.69c0.69,0,1.59-0.3,2.13-0.83
				l1.2,1.33C347.66,122.94,346.51,123.32,345.23,123.32z"/>
			<path class="st0" d="M350.83,114.46h6.42v1.77h-4.52v1.67h4.26v1.69h-4.26v1.74h4.7v1.78h-6.59V114.46z"/>
			<path class="st0" d="M363.38,120.27h-1.4v2.84h-1.93v-8.65h4.1c2.09,0,3.2,1.4,3.2,2.92c0,1.13-0.36,2.13-2,2.72l2.37,2.87v0.15
				h-2.14L363.38,120.27z M364.18,118.64c0.89,0,1.27-0.67,1.27-1.21c0-0.59-0.41-1.31-1.3-1.31h-2.17v2.52H364.18z"/>
		</g>
	</g>
	<g class="st5">
		<g>
			<path class="st0" d="M8.61,131.89c0,0.73-0.31,1.38-1.15,1.77c0.93,0.33,1.42,1.21,1.42,2.06c0,0.15-0.02,0.3-0.05,0.45
				c-0.26,1.4-1.41,2.03-3.15,2.03H1.34v-8.65h4.26C7.24,129.55,8.61,130.29,8.61,131.89z M6.71,132.09c0-0.51-0.36-0.88-1.1-0.88
				H3.23v1.69h2.35C6.33,132.91,6.71,132.6,6.71,132.09z M6.88,135.53c0-0.61-0.44-1.01-1.3-1.01H3.23v2h2.37
				C6.48,136.52,6.88,136.13,6.88,135.53z"/>
			<path class="st0" d="M14.84,138.41c-2.19,0-4.02-1.27-4.02-4.02v-4.83h1.92v4.83c0,1.5,0.79,2.29,2.13,2.29
				c1.43,0,1.93-0.96,1.93-2.29v-4.83h1.92v4.83C18.71,137.01,17.2,138.41,14.84,138.41z"/>
			<path class="st0" d="M24.45,135.35h-1.4v2.84h-1.93v-8.65h4.1c2.09,0,3.2,1.4,3.2,2.92c0,1.13-0.36,2.13-2,2.72l2.37,2.87v0.15
				h-2.14L24.45,135.35z M25.25,133.72c0.89,0,1.27-0.67,1.27-1.21c0-0.59-0.41-1.31-1.3-1.31h-2.17v2.52H25.25z"/>
			<path class="st0" d="M30.7,129.55h6.42v1.77H32.6v1.67h4.26v1.69H32.6v1.74h4.7v1.78H30.7V129.55z"/>
			<path class="st0" d="M40.49,138.2h-2.08l3.88-8.65h2.1l3.88,8.65h-2.09l-0.63-1.48h-4.44L40.49,138.2z M44.83,135.01l-1.48-3.51
				l-1.5,3.51H44.83z"/>
			<path class="st0" d="M53.38,138.41c-2.19,0-4.02-1.27-4.02-4.02v-4.83h1.92v4.83c0,1.5,0.79,2.29,2.13,2.29
				c1.43,0,1.93-0.96,1.93-2.29v-4.83h1.92v4.83C57.25,137.01,55.74,138.41,53.38,138.41z"/>
			<path class="st0" d="M71.07,133.81c0,2.27-1.27,4.39-4.3,4.39h-3.55v-8.65h3.55C69.74,129.55,71.07,131.54,71.07,133.81z
				 M69.16,133.78c0-1.24-0.59-2.5-2.4-2.5h-1.64v5.13h1.64C68.64,136.42,69.16,135.03,69.16,133.78z"/>
			<path class="st0" d="M77.03,138.41c-2.19,0-4.02-1.27-4.02-4.02v-4.83h1.92v4.83c0,1.5,0.79,2.29,2.13,2.29
				c1.43,0,1.93-0.96,1.93-2.29v-4.83h1.92v4.83C80.9,137.01,79.39,138.41,77.03,138.41z"/>
			<path class="st0" d="M94.72,133.81c0,2.27-1.27,4.39-4.3,4.39h-3.55v-8.65h3.55C93.4,129.55,94.72,131.54,94.72,133.81z
				 M92.82,133.78c0-1.24-0.59-2.5-2.4-2.5h-1.64v5.13h1.64C92.3,136.42,92.82,135.03,92.82,133.78z"/>
			<path class="st0" d="M98.71,129.55v8.65h-1.92v-8.65H98.71z"/>
			<path class="st0" d="M104.58,135.35h-1.4v2.84h-1.93v-8.65h4.1c2.09,0,3.2,1.4,3.2,2.92c0,1.13-0.36,2.13-2,2.72l2.37,2.87v0.15
				h-2.14L104.58,135.35z M105.38,133.72c0.89,0,1.27-0.67,1.27-1.21c0-0.59-0.41-1.31-1.3-1.31h-2.17v2.52H105.38z"/>
			<path class="st0" d="M110.83,129.55h6.42v1.77h-4.52v1.67h4.26v1.69h-4.26v1.74h4.7v1.78h-6.59V129.55z"/>
			<path class="st0" d="M123.6,138.41c-3.3,0-4.62-2.13-4.62-4.49c0-2.24,1.43-4.59,4.62-4.59c1.19,0,2.29,0.45,3.18,1.33l-1.21,1.2
				c-0.53-0.51-1.27-0.72-1.97-0.72c-1.98,0-2.72,1.53-2.72,2.78c0,1.26,0.7,2.69,2.72,2.69c0.69,0,1.59-0.3,2.13-0.83l1.2,1.33
				C126.03,138.02,124.88,138.41,123.6,138.41z"/>
			<path class="st0" d="M127.93,129.55h7.18v1.72h-2.63v6.93h-1.92v-6.93h-2.63V129.55z"/>
			<path class="st0" d="M136.91,129.55h6.42v1.77h-4.52v1.67h4.26v1.69h-4.26v1.74h4.7v1.78h-6.59V129.55z"/>
			<path class="st0" d="M149.53,138.41c-2.19,0-4.02-1.27-4.02-4.02v-4.83h1.92v4.83c0,1.5,0.79,2.29,2.13,2.29
				c1.43,0,1.93-0.96,1.93-2.29v-4.83h1.92v4.83C153.39,137.01,151.89,138.41,149.53,138.41z"/>
			<path class="st0" d="M159.14,135.35h-1.4v2.84h-1.93v-8.65h4.1c2.09,0,3.2,1.4,3.2,2.92c0,1.13-0.36,2.13-2,2.72l2.37,2.87v0.15
				h-2.14L159.14,135.35z M159.94,133.72c0.89,0,1.27-0.67,1.27-1.21c0-0.59-0.41-1.31-1.3-1.31h-2.17v2.52H159.94z"/>
			<path class="st0" d="M168.94,138.2v-8.65h4.08c2.22,0,3.31,1.42,3.31,3.1c0,1.74-1.11,3.07-3.31,3.1h-2.15v2.45H168.94z
				 M174.4,132.69c0-0.69-0.46-1.31-1.38-1.31h-2.15v2.61h2.15C173.94,133.98,174.4,133.38,174.4,132.69z"/>
			<path class="st0" d="M178.6,138.2h-2.08l3.88-8.65h2.1l3.88,8.65h-2.09l-0.63-1.48h-4.44L178.6,138.2z M182.94,135.01l-1.48-3.51
				l-1.5,3.51H182.94z"/>
			<path class="st0" d="M191.25,135.35h-1.4v2.84h-1.93v-8.65h4.1c2.09,0,3.2,1.4,3.2,2.92c0,1.13-0.36,2.13-2,2.72l2.37,2.87v0.15
				h-2.14L191.25,135.35z M192.05,133.72c0.89,0,1.27-0.67,1.27-1.21c0-0.59-0.41-1.31-1.3-1.31h-2.17v2.52H192.05z"/>
			<path class="st0" d="M203.75,136.43v1.77h-6.25v-8.65h1.93v6.88H203.75z"/>
			<path class="st0" d="M205.53,129.55h6.42v1.77h-4.52v1.67h4.26v1.69h-4.26v1.74h4.7v1.78h-6.59V129.55z"/>
			<path class="st0" d="M218.77,135.55l-2.58-3.39v6.04h-1.93v-8.65h2.21l2.52,3.33l2.53-3.33h2.19v8.65h-1.93v-6.02l-2.67,3.36
				H218.77z"/>
			<path class="st0" d="M226.25,129.55h6.42v1.77h-4.52v1.67h4.26v1.69h-4.26v1.74h4.7v1.78h-6.59V129.55z"/>
			<path class="st0" d="M240.87,129.55h1.94v8.65h-1.66l-4.3-5.54l0.07,2.84v2.69h-1.95v-8.65h1.66l4.36,5.62l-0.12-2.72V129.55z"/>
			<path class="st0" d="M244.6,129.55h7.18v1.72h-2.63v6.93h-1.92v-6.93h-2.63V129.55z"/>
			<path class="st0" d="M253.87,138.2h-2.08l3.88-8.65h2.1l3.88,8.65h-2.09l-0.63-1.48h-4.44L253.87,138.2z M258.21,135.01
				l-1.48-3.51l-1.5,3.51H258.21z"/>
			<path class="st0" d="M265.11,129.55v8.65h-1.92v-8.65H265.11z"/>
			<path class="st0" d="M270.98,135.35h-1.4v2.84h-1.93v-8.65h4.1c2.09,0,3.2,1.4,3.2,2.92c0,1.13-0.36,2.13-2,2.72l2.37,2.87v0.15
				h-2.14L270.98,135.35z M271.78,133.72c0.89,0,1.27-0.67,1.27-1.21c0-0.59-0.41-1.31-1.3-1.31h-2.17v2.52H271.78z"/>
			<path class="st0" d="M277.23,129.55h6.42v1.77h-4.52v1.67h4.26v1.69h-4.26v1.74h4.7v1.78h-6.59V129.55z"/>
			<path class="st0" d="M297.35,133.81c0,2.27-1.27,4.39-4.3,4.39h-3.55v-8.65h3.55C296.03,129.55,297.35,131.54,297.35,133.81z
				 M295.45,133.78c0-1.24-0.59-2.5-2.4-2.5h-1.64v5.13h1.64C294.93,136.42,295.45,135.03,295.45,133.78z"/>
			<path class="st0" d="M303.32,138.41c-2.19,0-4.02-1.27-4.02-4.02v-4.83h1.92v4.83c0,1.5,0.79,2.29,2.13,2.29
				c1.43,0,1.93-0.96,1.93-2.29v-4.83h1.92v4.83C307.19,137.01,305.68,138.41,303.32,138.41z"/>
			<path class="st0" d="M320.42,131.89c0,0.73-0.31,1.38-1.15,1.77c0.93,0.33,1.42,1.21,1.42,2.06c0,0.15-0.03,0.3-0.05,0.45
				c-0.26,1.4-1.41,2.03-3.15,2.03h-4.34v-8.65h4.26C319.05,129.55,320.42,130.29,320.42,131.89z M318.52,132.09
				c0-0.51-0.36-0.88-1.1-0.88h-2.37v1.69h2.35C318.15,132.91,318.52,132.6,318.52,132.09z M318.69,135.53
				c0-0.61-0.44-1.01-1.3-1.01h-2.35v2h2.37C318.29,136.52,318.69,136.13,318.69,135.53z"/>
			<path class="st0" d="M326.65,138.41c-2.19,0-4.02-1.27-4.02-4.02v-4.83h1.92v4.83c0,1.5,0.79,2.29,2.13,2.29
				c1.43,0,1.93-0.96,1.93-2.29v-4.83h1.92v4.83C330.52,137.01,329.01,138.41,326.65,138.41z"/>
			<path class="st0" d="M340.79,133.81c0,2.27-1.27,4.39-4.3,4.39h-3.55v-8.65h3.55C339.46,129.55,340.79,131.54,340.79,133.81z
				 M338.88,133.78c0-1.24-0.59-2.5-2.4-2.5h-1.64v5.13h1.64C338.36,136.42,338.88,135.03,338.88,133.78z"/>
			<path class="st0" d="M346.98,131.09c-1.64,0-2.72,0.94-2.72,2.83c0,1.19,0.68,2.73,2.72,2.73c0.61,0,1.16-0.1,1.84-0.61v-1.33
				h-2.06v-1.61h3.73v3.72c-0.75,1.08-1.93,1.61-3.52,1.61c-3.34,0-4.6-2.31-4.6-4.51c0-2.44,1.43-4.6,4.61-4.6
				c1.19,0,2.24,0.31,3.23,1.33l-1.2,1.2C348.47,131.35,347.67,131.09,346.98,131.09z"/>
			<path class="st0" d="M352.65,129.55h6.42v1.77h-4.52v1.67h4.26v1.69h-4.26v1.74h4.7v1.78h-6.59V129.55z"/>
			<path class="st0" d="M360.62,129.55h7.18v1.72h-2.63v6.93h-1.92v-6.93h-2.63V129.55z"/>
		</g>
	</g>
</g>
</svg>
